<svg width="1080" height="1080" viewBox="0 0 1080 1080" fill="none" xmlns="http://www.w3.org/2000/svg">
<rect width="1080" height="1080" rx="100" fill="#F4F2D5"/>
<path d="M528.478 270.685C497.85 257.073 457.015 284.296 446.806 318.327C436.596 352.357 453.612 410.208 497.85 430.625C542.089 451.043 582.925 423.819 565.91 399.999C508.06 393.193 470.627 331.939 487.642 301.312C504.657 270.686 559.104 284.296 528.478 270.685Z" fill="#F35BAF"/>
<path d="M603.343 369.371C640.776 338.745 620.358 270.685 589.732 263.878C559.105 257.072 545.492 274.088 569.314 294.505C599.941 318.326 562.507 365.968 538.687 362.565C538.687 362.565 565.91 399.998 603.343 369.371Z" fill="#F35BAF"/>
<path d="M538.686 250.944C572.716 237.332 596.537 243.461 616.955 263.878C627.164 233.252 593.134 182.207 531.88 175.4C470.626 168.594 412.776 250.267 440 291.103C446.806 277.49 487.642 240.736 538.686 250.944Z" fill="#78D75B"/>
<path d="M426.388 348.953C368.537 362.565 362.555 419.272 375.343 454.446C388.955 491.878 378.746 519.103 395.761 525.908C411.872 532.356 467.224 536.118 514.866 539.52C562.508 542.923 599.941 502.087 586.328 454.445C450.209 478.267 426.388 379.58 426.388 348.953Z" fill="#78D75B"/>
<path d="M413.346 341.575C413.346 341.575 415.048 319.456 421.854 307.546C418.451 304.143 415.048 290.531 415.048 290.531C415.048 290.531 411.645 275.218 411.645 263.307C386.122 258.203 341.883 290.531 340.182 295.636C338.481 300.74 348.689 358.591 370.809 360.293C394.631 341.575 413.346 341.575 413.346 341.575Z" fill="#78D75B"/>
<path d="M722.448 294.505C691.821 229.848 633.97 243.461 633.97 243.461C633.97 243.461 637.373 260.475 630.567 270.684C664.596 308.117 640.775 385.249 611.285 394.329C713.374 438.568 736.06 348.953 739.463 335.341C742.866 321.729 729.254 311.521 722.448 294.505Z" fill="#78D75B"/>
<path d="M694.772 416.794C677.304 429.17 627.848 425.867 599.488 411.118C600.617 422.457 589.279 440.615 583.609 441.745C605.164 450.824 625.582 490.523 589.285 532.496C604.033 547.238 664.15 535.899 699.317 513.207C705.04 509.518 714.059 472.371 716.332 450.824C719.344 422.284 722.003 397.506 694.772 416.794Z" fill="#78D75B"/>
<path d="M540.959 323.996C526.171 328.03 517.178 319.097 522.807 309.254C527.347 301.311 526.921 293.09 516.001 299.045C493.31 312.657 506.929 351.22 535.289 347.817C573.852 334.205 556.837 299.045 546.628 300.175C536.42 301.304 553.435 320.593 540.959 323.996Z" fill="#F35BAF"/>
<path d="M267.996 709V704.282C271.947 704.121 274.85 703.798 276.705 703.315C278.641 702.75 279.891 701.782 280.455 700.411C281.1 698.96 281.423 696.782 281.423 693.879V638.476C281.423 635.573 281.1 633.435 280.455 632.065C279.891 630.613 278.641 629.605 276.705 629.04C274.85 628.476 271.947 628.153 267.996 628.073V623.355C276.625 623.597 290.375 623.718 309.246 623.718C312.552 623.718 315.737 623.718 318.802 623.718C321.947 623.637 324.891 623.597 327.633 623.597C330.455 623.516 332.996 623.435 335.254 623.355C335.334 628.113 335.536 632.75 335.858 637.266C336.262 641.702 336.786 645.976 337.431 650.089H332.592C331.463 644.685 330.052 640.411 328.358 637.266C326.665 634.121 324.568 631.863 322.068 630.492C319.568 629.121 316.423 628.435 312.633 628.435H297.391V693.879C297.391 696.782 297.754 698.96 298.479 700.411C299.286 701.863 300.899 702.831 303.318 703.315C305.737 703.798 309.447 704.121 314.447 704.282V709C311.947 708.919 308.6 708.839 304.407 708.758C300.213 708.677 295.294 708.637 289.649 708.637C285.294 708.637 281.262 708.677 277.552 708.758C273.923 708.839 270.737 708.919 267.996 709ZM293.52 669.323V664.605H316.383V669.323H293.52ZM318.923 686.984C318.52 682.71 317.794 679.282 316.746 676.702C315.778 674.121 314.326 672.266 312.391 671.137C310.536 669.927 308.157 669.323 305.254 669.323V664.605C309.286 664.605 312.35 663.355 314.447 660.855C316.544 658.355 317.875 654.403 318.439 649H322.915C322.592 653.758 322.431 657.427 322.431 660.008C322.512 662.508 322.552 664.806 322.552 666.903C322.552 668.677 322.552 670.452 322.552 672.226C322.633 674 322.713 676.056 322.794 678.395C322.955 680.653 323.116 683.516 323.278 686.984H318.923ZM345.684 709V704.282C350.281 704.202 353.466 703.556 355.241 702.347C357.096 701.137 358.023 698.879 358.023 695.573V630.976C358.023 627.266 357.136 624.605 355.362 622.992C353.587 621.298 350.362 620.411 345.684 620.331V615.613C347.378 615.694 349.071 615.774 350.765 615.855C352.458 615.935 354.152 615.976 355.846 615.976C358.991 615.976 361.975 615.855 364.797 615.613C367.7 615.29 370.362 614.847 372.781 614.282V695.573C372.781 698.879 373.668 701.137 375.442 702.347C377.297 703.556 380.483 704.202 384.999 704.282V709C383.789 708.919 382.096 708.879 379.918 708.879C377.821 708.798 375.523 708.718 373.023 708.637C370.523 708.556 368.023 708.516 365.523 708.516C361.813 708.516 358.063 708.597 354.273 708.758C350.483 708.839 347.62 708.919 345.684 709ZM424.933 710.694C419.127 710.694 413.925 709.524 409.328 707.185C404.812 704.766 401.224 701.137 398.562 696.298C395.982 691.46 394.691 685.29 394.691 677.79C394.691 670.29 395.982 664.121 398.562 659.282C401.224 654.363 404.812 650.734 409.328 648.395C413.925 646.056 419.167 644.887 425.054 644.887C430.941 644.887 436.143 646.056 440.659 648.395C445.175 650.734 448.724 654.363 451.304 659.282C453.965 664.121 455.296 670.29 455.296 677.79C455.296 685.29 453.965 691.46 451.304 696.298C448.724 701.137 445.135 704.766 440.538 707.185C436.022 709.524 430.82 710.694 424.933 710.694ZM425.054 705.976C429.328 705.976 432.836 703.758 435.578 699.323C438.32 694.806 439.691 687.629 439.691 677.79C439.691 667.871 438.28 660.694 435.457 656.258C432.715 651.742 429.248 649.484 425.054 649.484C420.699 649.484 417.111 651.742 414.288 656.258C411.546 660.694 410.175 667.871 410.175 677.79C410.175 687.629 411.546 694.806 414.288 699.323C417.111 703.758 420.699 705.976 425.054 705.976ZM493.407 710.089L473.205 659.282C471.915 656.137 470.342 654.04 468.487 652.992C466.632 651.863 464.334 651.298 461.592 651.298V646.581C464.011 646.661 466.511 646.782 469.092 646.944C471.753 647.024 474.939 647.065 478.649 647.065C482.681 647.065 486.27 647.024 489.415 646.944C492.56 646.782 495.382 646.661 497.882 646.581V651.298C493.044 651.46 490.1 652.226 489.052 653.597C488.003 654.887 488.245 657.468 489.778 661.339L501.39 691.218L499.213 692.79L515.786 646.097L519.778 649.121L497.882 710.089H493.407ZM532.963 710.089L512.761 663.879L515.786 646.097H520.503L540.705 692.065L538.286 694.121L547.116 668.96C548.568 665.089 549.132 661.903 548.81 659.403C548.568 656.823 547.52 654.887 545.665 653.597C543.81 652.226 541.229 651.46 537.923 651.298V646.581C540.1 646.661 542.036 646.742 543.729 646.823C545.503 646.823 547.116 646.863 548.568 646.944C550.1 646.944 551.673 646.944 553.286 646.944C555.705 646.944 558.084 646.903 560.423 646.823C562.842 646.742 565.02 646.661 566.955 646.581V651.298C563.649 651.863 560.987 653.113 558.971 655.048C557.036 656.903 555.302 660.008 553.77 664.363L537.439 710.089H532.963ZM603.409 710.694C597.441 710.694 592.239 709.403 587.804 706.823C583.449 704.161 580.062 700.371 577.643 695.452C575.304 690.532 574.135 684.685 574.135 677.911C574.135 670.976 575.344 665.048 577.764 660.129C580.264 655.21 583.812 651.46 588.409 648.879C593.006 646.218 598.409 644.887 604.619 644.887C610.102 644.887 614.78 645.935 618.651 648.032C622.522 650.048 625.465 653.234 627.481 657.589C629.578 661.944 630.546 667.589 630.385 674.524H584.417L584.175 669.927H616.473C616.554 665.976 616.151 662.468 615.264 659.403C614.457 656.339 613.127 653.919 611.272 652.145C609.417 650.371 607.038 649.484 604.135 649.484C600.425 649.484 597.199 651.218 594.457 654.685C591.715 658.073 590.102 663.476 589.619 670.895L589.86 671.258C589.78 672.065 589.699 672.911 589.619 673.798C589.619 674.685 589.619 675.694 589.619 676.823C589.619 685.048 591.191 691.46 594.336 696.056C597.481 700.573 602.038 702.831 608.006 702.831C612.038 702.831 615.546 701.863 618.53 699.927C621.594 697.911 624.175 694.806 626.272 690.613L630.506 693.153C628.248 698.718 624.78 703.032 620.102 706.097C615.425 709.161 609.86 710.694 603.409 710.694ZM641.404 709V704.282C646.081 704.202 649.267 703.556 650.96 702.347C652.735 701.056 653.622 698.798 653.622 695.573V661.944C653.622 658.153 652.694 655.452 650.84 653.839C648.985 652.226 645.84 651.379 641.404 651.298V646.581C643.42 646.661 645.235 646.742 646.848 646.823C648.46 646.903 650.194 646.944 652.049 646.944C658.178 646.944 663.622 646.379 668.38 645.25V694.726C668.38 698.194 669.549 700.653 671.888 702.105C674.227 703.476 678.299 704.202 684.106 704.282V709C682.654 708.919 680.638 708.879 678.057 708.879C675.557 708.798 672.815 708.718 669.831 708.637C666.928 708.556 664.106 708.516 661.364 708.516C657.331 708.516 653.46 708.597 649.751 708.758C646.041 708.839 643.259 708.919 641.404 709ZM689.791 667.871C687.856 667.871 686.283 667.347 685.073 666.298C683.944 665.25 683.38 663.839 683.38 662.065C683.38 660.935 683.581 659.927 683.985 659.04C684.469 658.153 684.912 657.306 685.315 656.5C685.719 655.694 685.92 654.887 685.92 654.081C685.92 652.387 684.71 651.54 682.291 651.54C680.517 651.54 678.662 651.984 676.727 652.871C674.872 653.758 673.138 654.968 671.525 656.5C669.993 657.952 668.823 659.645 668.017 661.581L667.775 656.5C669.791 652.871 672.452 650.048 675.759 648.032C679.146 645.935 682.694 644.887 686.404 644.887C690.194 644.887 693.178 645.976 695.356 648.153C697.614 650.331 698.743 653.315 698.743 657.105C698.743 660.331 697.896 662.952 696.202 664.968C694.59 666.903 692.452 667.871 689.791 667.871ZM703.253 709V704.282C707.849 704.202 711.035 703.556 712.809 702.347C714.664 701.137 715.591 698.879 715.591 695.573V630.976C715.591 627.266 714.704 624.605 712.93 622.992C711.156 621.298 707.93 620.411 703.253 620.331V615.613C704.946 615.694 706.64 615.774 708.333 615.855C710.027 615.935 711.72 615.976 713.414 615.976C716.559 615.976 719.543 615.855 722.365 615.613C725.269 615.29 727.93 614.847 730.349 614.282V695.573C730.349 698.879 731.236 701.137 733.011 702.347C734.865 703.556 738.051 704.202 742.567 704.282V709C741.357 708.919 739.664 708.879 737.486 708.879C735.39 708.798 733.091 708.718 730.591 708.637C728.091 708.556 725.591 708.516 723.091 708.516C719.382 708.516 715.632 708.597 711.841 708.758C708.051 708.839 705.188 708.919 703.253 709ZM779.718 713.355L755.283 659.161C754.073 656.5 752.541 654.565 750.686 653.355C748.831 652.065 746.412 651.379 743.428 651.298V646.581C746.331 646.742 749.154 646.863 751.896 646.944C754.718 647.024 757.823 647.065 761.21 647.065C764.839 647.065 767.984 647.024 770.646 646.944C773.388 646.782 775.968 646.661 778.388 646.581V651.298C774.517 651.46 772.097 652.266 771.13 653.718C770.162 655.169 770.444 657.669 771.976 661.218L787.097 695.089L784.678 696.177L795.323 669.081C796.775 665.371 797.46 662.266 797.38 659.766C797.38 657.185 796.654 655.21 795.202 653.839C793.751 652.387 791.533 651.54 788.549 651.298V646.581C790.565 646.661 792.339 646.742 793.872 646.823C795.484 646.823 797.017 646.863 798.468 646.944C800.001 646.944 801.573 646.944 803.186 646.944C805.364 646.944 807.581 646.903 809.839 646.823C812.178 646.742 814.194 646.661 815.888 646.581V651.298C812.581 651.782 809.839 653.113 807.662 655.29C805.484 657.387 803.509 660.774 801.735 665.452L783.226 713.355H779.718ZM762.541 738.637C758.428 738.637 755.081 737.589 752.501 735.492C750.001 733.476 748.751 730.774 748.751 727.387C748.751 724.645 749.597 722.427 751.291 720.734C752.985 719.121 755.162 718.315 757.823 718.315C759.839 718.315 761.412 718.798 762.541 719.766C763.751 720.734 764.355 722.024 764.355 723.637C764.355 724.847 764.154 725.895 763.751 726.782C763.347 727.669 762.904 728.516 762.42 729.323C762.017 730.129 761.815 730.935 761.815 731.742C761.815 733.194 762.702 733.919 764.476 733.919C766.331 733.919 767.985 733.274 769.436 731.984C770.968 730.694 772.218 728.718 773.186 726.056L780.928 706.339L785.041 708.395L777.904 726.661C776.855 729.323 775.605 731.54 774.154 733.315C772.783 735.169 771.13 736.5 769.194 737.306C767.339 738.194 765.122 738.637 762.541 738.637Z" fill="#563808"/>
<path d="M460.681 867.129C457.617 867.129 454.982 866.806 452.778 866.161C450.627 865.516 448.853 864.871 447.455 864.226C446.057 863.581 444.955 863.258 444.149 863.258C443.45 863.258 442.885 863.554 442.455 864.145C442.079 864.737 441.783 865.597 441.568 866.726H438.342C438.45 865.543 438.531 864.091 438.584 862.371C438.638 860.651 438.665 858.446 438.665 855.758C438.719 853.07 438.746 849.71 438.746 845.677H441.971C442.402 851.323 444.176 855.785 447.294 859.065C450.412 862.29 454.471 863.903 459.471 863.903C463.074 863.903 465.95 862.989 468.1 861.161C470.305 859.28 471.407 856.753 471.407 853.581C471.407 851.591 470.923 849.844 469.955 848.339C469.041 846.78 467.536 845.355 465.439 844.065C463.396 842.774 460.654 841.511 457.213 840.274C453.074 838.769 449.686 837.156 447.052 835.435C444.471 833.715 442.563 831.806 441.326 829.71C440.143 827.559 439.552 825.14 439.552 822.452C439.552 819.441 440.224 816.833 441.568 814.629C442.966 812.425 444.928 810.731 447.455 809.548C449.982 808.366 452.939 807.774 456.326 807.774C459.122 807.774 461.461 808.097 463.342 808.742C465.224 809.333 466.783 809.952 468.02 810.597C469.256 811.242 470.305 811.565 471.165 811.565C471.81 811.565 472.348 811.296 472.778 810.758C473.208 810.167 473.531 809.306 473.746 808.177H476.971C476.864 809.36 476.783 810.704 476.729 812.21C476.676 813.661 476.622 815.489 476.568 817.694C476.568 819.898 476.568 822.72 476.568 826.161H473.262C472.832 821.538 471.192 817.855 468.342 815.113C465.493 812.317 461.918 810.919 457.617 810.919C454.229 810.919 451.595 811.753 449.713 813.419C447.885 815.032 446.971 817.263 446.971 820.113C446.971 821.995 447.455 823.688 448.423 825.194C449.391 826.645 450.977 828.043 453.181 829.387C455.439 830.677 458.45 832.022 462.213 833.419C468.342 835.677 472.751 838.204 475.439 841C478.127 843.796 479.471 847.237 479.471 851.323C479.471 856.161 477.778 860.005 474.391 862.855C471.004 865.704 466.434 867.129 460.681 867.129ZM518.127 866V862.855C520.492 862.801 522.105 862.371 522.966 861.565C523.826 860.704 524.256 859.199 524.256 857.048V838.177C524.256 834.629 523.557 831.995 522.159 830.274C520.815 828.5 518.799 827.613 516.111 827.613C513.906 827.613 511.837 828.231 509.901 829.468C508.019 830.651 506.353 832.425 504.901 834.79L504.982 831.242C506.326 828.769 508.234 826.833 510.708 825.435C513.181 824.038 515.923 823.339 518.933 823.339C523.181 823.339 526.433 824.656 528.691 827.29C530.949 829.925 532.079 833.715 532.079 838.661V857.048C532.079 859.199 532.724 860.704 534.014 861.565C535.358 862.371 537.724 862.801 541.111 862.855V866C540.304 865.946 539.175 865.919 537.724 865.919C536.326 865.866 534.794 865.812 533.127 865.758C531.46 865.704 529.847 865.677 528.288 865.677C526.299 865.677 524.337 865.731 522.401 865.839C520.519 865.892 519.095 865.946 518.127 866ZM488.53 866V862.855C491.971 862.801 494.337 862.371 495.627 861.565C496.917 860.704 497.562 859.199 497.562 857.048V813.984C497.562 811.403 496.89 809.602 495.546 808.581C494.256 807.505 491.917 806.941 488.53 806.887V803.742C489.659 803.796 490.788 803.849 491.917 803.903C493.046 803.957 494.202 803.984 495.385 803.984C497.213 803.984 498.96 803.903 500.627 803.742C502.347 803.527 503.933 803.231 505.385 802.855V857.048C505.385 859.199 505.815 860.704 506.675 861.565C507.535 862.371 509.148 862.801 511.514 862.855V866C510.439 865.946 508.96 865.892 507.079 865.839C505.251 865.731 503.342 865.677 501.353 865.677C499.148 865.677 496.837 865.731 494.417 865.839C491.998 865.892 490.035 865.946 488.53 866ZM566.682 867.129C563.026 867.129 559.746 866.349 556.843 864.79C553.94 863.231 551.628 860.839 549.907 857.613C548.187 854.387 547.327 850.274 547.327 845.274C547.327 840.22 548.187 836.081 549.907 832.855C551.628 829.629 553.94 827.237 556.843 825.677C559.8 824.118 563.106 823.339 566.762 823.339C570.472 823.339 573.751 824.118 576.601 825.677C579.504 827.237 581.816 829.629 583.536 832.855C585.257 836.081 586.117 840.22 586.117 845.274C586.117 850.274 585.257 854.387 583.536 857.613C581.816 860.839 579.504 863.231 576.601 864.79C573.751 866.349 570.445 867.129 566.682 867.129ZM566.762 866.242C569.934 866.242 572.542 864.575 574.585 861.242C576.682 857.855 577.73 852.532 577.73 845.274C577.73 838.016 576.682 832.694 574.585 829.306C572.542 825.919 569.934 824.226 566.762 824.226C563.536 824.226 560.875 825.919 558.778 829.306C556.735 832.694 555.714 838.016 555.714 845.274C555.714 852.532 556.735 857.855 558.778 861.242C560.875 864.575 563.536 866.242 566.762 866.242ZM594.389 884.629V881.484C597.83 881.43 600.196 880.973 601.486 880.113C602.777 879.306 603.422 877.828 603.422 875.677V834.71C603.422 832.129 602.75 830.328 601.406 829.306C600.062 828.231 597.723 827.667 594.389 827.613V824.468C595.465 824.522 596.567 824.575 597.696 824.629C598.825 824.683 600.008 824.71 601.244 824.71C605.008 824.71 608.341 824.333 611.244 823.581V875.274C611.244 877.478 612.078 879.038 613.744 879.952C615.411 880.919 618.314 881.43 622.454 881.484V884.629C621.486 884.575 620.169 884.522 618.502 884.468C616.836 884.468 615.035 884.441 613.099 884.387C611.164 884.333 609.282 884.306 607.454 884.306C604.82 884.306 602.293 884.333 599.873 884.387C597.454 884.495 595.626 884.575 594.389 884.629ZM622.293 867.129C619.389 867.129 616.863 866.565 614.712 865.435C612.615 864.253 611.164 862.667 610.357 860.677L610.922 857.855C611.674 859.575 612.884 860.946 614.551 861.968C616.271 862.935 618.234 863.419 620.438 863.419C624.309 863.419 627.293 861.833 629.389 858.661C631.486 855.489 632.535 850.919 632.535 844.952C632.535 839.36 631.594 835.059 629.712 832.048C627.884 828.984 625.25 827.452 621.809 827.452C619.443 827.452 617.185 828.204 615.035 829.71C612.884 831.161 611.406 833.043 610.599 835.355L610.196 833.016C611.002 830.167 612.723 827.855 615.357 826.081C618.045 824.253 621.11 823.339 624.551 823.339C627.938 823.339 630.841 824.199 633.26 825.919C635.734 827.64 637.615 830.086 638.906 833.258C640.25 836.376 640.922 840.086 640.922 844.387C640.922 849.011 640.142 853.043 638.583 856.484C637.024 859.871 634.846 862.505 632.051 864.387C629.255 866.215 626.002 867.129 622.293 867.129Z" fill="#563808"/>
<line x1="710" y1="848.5" x2="950" y2="848.5" stroke="black" stroke-width="7"/>
<line x1="130" y1="848.5" x2="370" y2="848.5" stroke="black" stroke-width="7"/>
</svg>
